<svg xmlns="http://www.w3.org/2000/svg" xmlns:xlink="http://www.w3.org/1999/xlink" width="250.8" height="59.5" viewBox="0 0 250.8 59.5">
  <defs>
    <clipPath id="clip-path">
      <rect id="Rectángulo_902" data-name="Rectángulo 902" width="250.8" height="59.5" fill="none"/>
    </clipPath>
  </defs>
  <g id="Grupo_162417" data-name="Grupo 162417" clip-path="url(#clip-path)">
    <path id="Trazado_3296" data-name="Trazado 3296" d="M100.961.007V59.5S64.369,44.965,0,44.965V0" transform="translate(0 -0.001)" fill="#1592ff"/>
    <path id="Trazado_3297" data-name="Trazado 3297" d="M2.21,31.767V2.224h21.9V6.613H6.767V27.378H24.113v4.389ZM4.531,14.42H21.8v4.389H4.531Z" transform="translate(5.368 5.4)" fill="#fff"/>
    <path id="Trazado_3298" data-name="Trazado 3298" d="M9.159,31.77,22.243,2.224h5.023L40.31,31.77H35.372L26.845,12.524a13.2,13.2,0,0,1-.655-1.478c-.24-.617-.49-1.272-.758-1.961s-.521-1.365-.761-2.026-.442-1.231-.61-1.711l1.18-.041c-.226.59-.456,1.21-.7,1.855s-.483,1.3-.737,1.965-.507,1.293-.761,1.9-.494,1.159-.717,1.666L13.887,31.77Zm4.656-7.091,1.732-4.389h8.809l1.265,4.389Z" transform="translate(22.245 5.4)" fill="#fff"/>
    <path id="Trazado_3299" data-name="Trazado 3299" d="M18.828,31.77V2.224H32.29a17.783,17.783,0,0,1,6.522,1.118,13.669,13.669,0,0,1,4.835,3.144,13.5,13.5,0,0,1,3,4.708A16.27,16.27,0,0,1,47.654,17a16.564,16.564,0,0,1-1.011,5.867,13.156,13.156,0,0,1-2.976,4.687,13.712,13.712,0,0,1-4.835,3.1A17.948,17.948,0,0,1,32.29,31.77Zm4.557-3.926-.127-.463H32.08a13.727,13.727,0,0,0,4.79-.761,8.583,8.583,0,0,0,5.359-5.445A12.768,12.768,0,0,0,42.885,17a12.461,12.461,0,0,0-.655-4.115,9.006,9.006,0,0,0-2-3.292A9.142,9.142,0,0,0,36.85,7.395a13.23,13.23,0,0,0-4.769-.782H23.131l.254-.381Z" transform="translate(45.73 5.4)" fill="#fff"/>
    <path id="Trazado_3300" data-name="Trazado 3300" d="M33.922,3.584H50.877V7.771H38.9v7.962H49.091v4.187H38.9v11.72H33.922ZM52.684,25.978c0-4.512,3.741-6.864,12.388-7.79-.069-2.266-.977-4.156-3.827-4.156a11.655,11.655,0,0,0-5.922,2.078l-1.817-3.3a16.437,16.437,0,0,1,8.647-2.764c5.27,0,7.862,3.244,7.862,9.114V31.639H65.964l-.377-2.332H65.45a10.19,10.19,0,0,1-6.539,2.849A5.9,5.9,0,0,1,52.684,25.978Zm12.388.017V21.26c-5.712.72-7.619,2.212-7.619,4.341,0,1.862,1.269,2.678,3.038,2.678C62.206,28.278,63.513,27.435,65.073,25.995Zm9.477-4.876c0-7.015,4.958-11.068,10.571-11.068a9.023,9.023,0,0,1,6.162,2.369l-2.4,3.209a5.166,5.166,0,0,0-3.5-1.546c-3.4,0-5.747,2.815-5.747,7.036s2.314,7,5.592,7A6.924,6.924,0,0,0,89.582,26.3l2.009,3.261a10.415,10.415,0,0,1-6.882,2.592C78.959,32.156,74.55,28.1,74.55,21.119Zm21.509,3.415V14.5h-3V10.791l3.261-.226L96.9,4.818H101v5.747h5.373V14.5H101V24.527c0,2.479.963,3.7,2.987,3.7a6.627,6.627,0,0,0,2.2-.483l.84,3.638a13.567,13.567,0,0,1-4.307.775C97.859,32.156,96.059,29.084,96.059,24.534Zm12.663-3.415c0-7.015,4.773-11.068,10.022-11.068s10.022,4.053,10.022,11.068c0,6.984-4.77,11.037-10.022,11.037S108.721,28.1,108.721,21.119Zm14.967,0c0-4.221-1.855-7.036-4.944-7.036S113.8,16.9,113.8,21.119s1.852,7,4.941,7S123.688,25.343,123.688,21.119Zm9.964-10.554H137.7l.377,3.761h.137c1.5-2.746,3.734-4.276,5.99-4.276a5.357,5.357,0,0,1,2.383.429l-.857,4.293a7.131,7.131,0,0,0-2.16-.343c-1.684,0-3.71,1.149-4.979,4.358V31.639h-4.941Zm15.323,29.3.909-3.827a5.833,5.833,0,0,0,1.509.291c2.215,0,3.5-1.512,4.207-3.621l.394-1.324L147.7,10.565h5.013L156.355,20.9c.634,1.872,1.234,3.95,1.852,5.956h.171c.531-1.954,1.066-4.032,1.615-5.956l3.141-10.331H167.9L160.284,32.6c-1.752,4.745-3.964,7.687-8.565,7.687A8.22,8.22,0,0,1,148.976,39.861Z" transform="translate(82.39 8.703)" fill="#fff"/>
  </g>
</svg>
