<svg id="Grupo_162411" data-name="Grupo 162411" xmlns="http://www.w3.org/2000/svg" xmlns:xlink="http://www.w3.org/1999/xlink" width="360.848" height="102.536" viewBox="0 0 360.848 102.536">
  <defs>
    <clipPath id="clip-path">
      <rect id="Rectángulo_893" data-name="Rectángulo 893" width="360.848" height="102.536" fill="none"/>
    </clipPath>
  </defs>
  <g id="Enmascarar_grupo_162410" data-name="Enmascarar grupo 162410" transform="translate(0 0)" clip-path="url(#clip-path)">
    <path id="Trazado_3276" data-name="Trazado 3276" d="M173.98.011V102.536S110.924,77.488,0,77.488V0" transform="translate(0 0)" fill="#fff"/>
    <path id="Trazado_3277" data-name="Trazado 3277" d="M11.439,62.428V11.514H49.187v7.564H19.294V54.863H49.187v7.565Zm4-29.894H45.188V40.1H15.439Z" transform="translate(1.617 1.627)" fill="#1d42aa"/>
    <path id="Trazado_3278" data-name="Trazado 3278" d="M47.418,62.428,69.965,11.514h8.656L101.1,62.428h-8.51L77.893,29.261a22.913,22.913,0,0,1-1.128-2.545l-1.308-3.383q-.693-1.781-1.31-3.491T73.093,16.9l2.037-.073q-.584,1.527-1.2,3.2t-1.273,3.382q-.654,1.71-1.309,3.273T70.11,29.552L55.564,62.428Zm8.023-12.219,2.982-7.564H73.6l2.182,7.564Z" transform="translate(6.703 1.627)" fill="#1d42aa"/>
    <path id="Trazado_3279" data-name="Trazado 3279" d="M97.47,62.427V11.513h23.2a30.594,30.594,0,0,1,11.237,1.928,23.489,23.489,0,0,1,8.328,5.419,23.177,23.177,0,0,1,5.165,8.109,28.078,28.078,0,0,1,1.745,10A28.577,28.577,0,0,1,145.4,47.08a22.626,22.626,0,0,1-5.128,8.074,23.55,23.55,0,0,1-8.328,5.346,30.866,30.866,0,0,1-11.273,1.927Zm7.856-6.764-.218-.8h15.2a23.685,23.685,0,0,0,8.255-1.309,14.8,14.8,0,0,0,9.237-9.383,21.976,21.976,0,0,0,1.128-7.2,21.419,21.419,0,0,0-1.128-7.091,15.488,15.488,0,0,0-3.455-5.673,15.73,15.73,0,0,0-5.819-3.782,22.807,22.807,0,0,0-8.219-1.346h-15.42l.437-.655Z" transform="translate(13.778 1.627)" fill="#1d42aa"/>
    <path id="Trazado_3280" data-name="Trazado 3280" d="M177.723,21.126H163.474v-9.8h40.2v9.8h-14.25V62.991h-11.7Z" transform="translate(23.108 1.602)" fill="#fff"/>
    <path id="Trazado_3281" data-name="Trazado 3281" d="M202,22.257h9.526l.841,6.872h.29c2.869-5.25,7.177-7.823,11.2-7.823a10.971,10.971,0,0,1,4.7.792L226.61,32.155a16.115,16.115,0,0,0-4.253-.633c-2.971,0-6.578,1.911-8.68,7.272V61.581H202Z" transform="translate(28.554 3.012)" fill="#fff"/>
    <path id="Trazado_3282" data-name="Trazado 3282" d="M228.164,46.553V22.139H239.84V45.06c0,5.659,1.523,7.429,4.894,7.429,2.934,0,4.726-1.23,7.006-4.325V22.139h11.676V61.464H253.89l-.841-5.456h-.29c-3.288,3.917-7,6.406-12.371,6.406-8.569,0-12.224-6.034-12.224-15.863" transform="translate(32.252 3.129)" fill="#fff"/>
    <path id="Trazado_3283" data-name="Trazado 3283" d="M261.483,57.04l5.254-7.258c3.57,2.695,6.869,4.131,10.166,4.131,3.474,0,4.979-1.323,4.979-3.383,0-2.591-3.906-3.765-7.961-5.35-4.831-1.865-10.429-5.064-10.429-11.564,0-7.321,5.964-12.31,15.057-12.31a22.437,22.437,0,0,1,13.887,4.98l-5.225,7c-2.8-2.034-5.57-3.358-8.3-3.358-3.017,0-4.5,1.179-4.5,3.141,0,2.508,3.691,3.467,7.774,4.95,4.99,1.841,10.615,4.644,10.615,11.834,0,7.115-5.626,12.683-16.187,12.683a25.6,25.6,0,0,1-15.13-5.492" transform="translate(36.962 3.012)" fill="#fff"/>
    <path id="Trazado_3284" data-name="Trazado 3284" d="M297.23,48.459V32.573h-5.383V23.88l6.037-.447,1.365-10.443h9.657V23.432h9.446v9.141h-9.446V48.318c0,4.457,2.028,6.247,5.1,6.247a11.724,11.724,0,0,0,3.747-.745l1.841,8.461a27.828,27.828,0,0,1-8.756,1.427c-9.739,0-13.608-6.137-13.608-15.248" transform="translate(41.254 1.836)" fill="#fff"/>
  </g>
</svg>
