<svg id="LOGO_GARRIGUES" xmlns="http://www.w3.org/2000/svg" width="210.394" height="24.781" viewBox="0 0 210.394 24.781">
  <path id="Trazado_8672" data-name="Trazado 8672" d="M147.858,275.267a1.771,1.771,0,0,0-.424-.071c-1.306,0-2.577.141-3.813.141-1.306,0-2.648-.141-3.989-.141a2.407,2.407,0,0,0-.671.071.6.6,0,0,0-.353.247.843.843,0,0,0-.177.494.616.616,0,0,0,.141.424.857.857,0,0,0,.494.318,2.169,2.169,0,0,0,.459.035h.141a10.621,10.621,0,0,1,1.236.071,1.326,1.326,0,0,1,.494.176.878.878,0,0,1,.353.53,5.645,5.645,0,0,1,.106,1.271v3.53a6.038,6.038,0,0,1-.106,1.377,1.468,1.468,0,0,1-.494.988h0a4.539,4.539,0,0,1-1.871.777,11.661,11.661,0,0,1-2.118.177c-3.106,0-5.683-.812-7.731-3.177h0a10.607,10.607,0,0,1-2.577-7.307,12.855,12.855,0,0,1,2.577-7.7h0a8.854,8.854,0,0,1,7.166-3.142,7.569,7.569,0,0,1,3.53.706,4.759,4.759,0,0,1,2.189,2.365c.212.388.353.777.53,1.094a3.313,3.313,0,0,0,.318.424.893.893,0,0,0,.53.212.849.849,0,0,0,.706-.388,1.2,1.2,0,0,0,.176-.671h0l-.071-1.553h0c-.071-.565,0-1.059-.106-1.589a1.226,1.226,0,0,0-.353-.706,1.678,1.678,0,0,0-.812-.494h0a17.876,17.876,0,0,0-6.072-1.059,15.488,15.488,0,0,0-9.884,3.565,12.038,12.038,0,0,0-4.483,9.284,11.27,11.27,0,0,0,4.413,8.931h0a14.2,14.2,0,0,0,9.214,2.965,15,15,0,0,0,8.049-2.083h0a2.019,2.019,0,0,0,.671-.671,1.52,1.52,0,0,0,.141-.777V278.48a3.028,3.028,0,0,1,.071-.812.925.925,0,0,1,.212-.494h0a.868.868,0,0,1,.353-.141c.176-.035.388-.035.565-.071h0l.671-.071a1.274,1.274,0,0,0,.6-.106.764.764,0,0,0,.318-.282.94.94,0,0,0,.106-.424.711.711,0,0,0-.106-.388A.4.4,0,0,0,147.858,275.267Z" transform="translate(-122.9 -262.665)" fill="#004438"/>
  <path id="Trazado_8673" data-name="Trazado 8673" d="M222.369,285.475a3.436,3.436,0,0,0-.565-.035,1.688,1.688,0,0,1-.953-.282,3.388,3.388,0,0,1-1.024-1.341c-.282-.565-.494-1.2-.741-1.73h0l-7.413-18.533a2.562,2.562,0,0,0-.212-.494,1.474,1.474,0,0,0-.212-.282.775.775,0,0,0-.424-.176.883.883,0,0,0-.459.141,1.338,1.338,0,0,0-.353.459c-.071.141-.106.318-.141.388l-7.131,18.568h0c-.141.353-.353.953-.6,1.518a7.936,7.936,0,0,1-.388.777,1.611,1.611,0,0,1-.353.494,1.271,1.271,0,0,1-.706.388,3.847,3.847,0,0,1-.918.106,3.042,3.042,0,0,0-.741.071.888.888,0,0,0-.424.247.767.767,0,0,0-.106.918.693.693,0,0,0,.459.318,2.428,2.428,0,0,0,.459.071c.282,0,.565-.035.671-.035,1.059,0,2.083-.141,3.106-.141.988,0,2.047.141,3.106.141a2.408,2.408,0,0,0,.671-.071.6.6,0,0,0,.353-.247.844.844,0,0,0,.177-.494.651.651,0,0,0-.141-.459.937.937,0,0,0-.53-.318,2.5,2.5,0,0,0-.494-.035H206.2a5.238,5.238,0,0,1-1.447-.177,1.329,1.329,0,0,1-.529-.318.765.765,0,0,1-.177-.494,6.62,6.62,0,0,1,.494-1.906h0l1.094-2.753h0c.141-.353.247-.6.318-.777a1.963,1.963,0,0,1,.141-.282c.071-.071.071-.106.212-.141a4.557,4.557,0,0,1,.812-.035h5.013a6.59,6.59,0,0,1,.953.035c.141.035.247.035.282.071l.106.106a12.2,12.2,0,0,1,.635,1.447h0l1.165,2.789c.106.247.212.565.318.883a3.08,3.08,0,0,1,.176.812.67.67,0,0,1-.141.424,1.6,1.6,0,0,1-.777.318,6.072,6.072,0,0,1-1.13.071,3.312,3.312,0,0,0-.777.071.754.754,0,0,0-.424.247.779.779,0,0,0-.212.53.531.531,0,0,0,.141.388.748.748,0,0,0,.424.282,1.461,1.461,0,0,0,.353.035c1.377,0,2.789-.141,4.095-.141,1.589,0,3.212.141,4.872.141a1.478,1.478,0,0,0,.494-.071.549.549,0,0,0,.282-.212.74.74,0,0,0,.141-.388.8.8,0,0,0-.212-.565C222.828,285.581,222.581,285.51,222.369,285.475Zm-15.5-8.79c.035-.071.035-.141.071-.177l2.542-6.707h0a1.281,1.281,0,0,1,.106-.247c.071-.141.141-.353.212-.494a2.432,2.432,0,0,1,.106.282,2.439,2.439,0,0,0,.106.282c.035.071.035.141.071.176h0l2.506,6.248v.071a2.941,2.941,0,0,1,.141.424c.035.071.035.141.071.212h-5.542c-.176,0-.318,0-.388-.071Z" transform="translate(-171.748 -262.6)" fill="#004438"/>
  <path id="Trazado_8674" data-name="Trazado 8674" d="M297.357,286.64a2.886,2.886,0,0,0-.494-.035,1.825,1.825,0,0,1-1.518-.741,11.647,11.647,0,0,1-1.024-1.765l-3-5.754h0a10.475,10.475,0,0,0-.918-1.553,4.551,4.551,0,0,0-.565-.6,7.912,7.912,0,0,0,3.212-1.624,5.551,5.551,0,0,0,1.871-4.236,5.224,5.224,0,0,0-2.33-4.519,8.867,8.867,0,0,0-5.013-1.412c-2.118,0-4.2.141-6.319.141-1.165,0-2.4-.141-3.636-.141a1.065,1.065,0,0,0-.671.177.842.842,0,0,0-.318.706.765.765,0,0,0,.176.494.808.808,0,0,0,.565.247,2.5,2.5,0,0,0,.494.035,5.3,5.3,0,0,1,1.236.106,1.13,1.13,0,0,1,.459.176.837.837,0,0,1,.282.494,4.86,4.86,0,0,1,.071,1.13V284.7a4.2,4.2,0,0,1-.071,1.024,1.192,1.192,0,0,1-.141.424.917.917,0,0,1-.53.353,5.71,5.71,0,0,1-1.341.141h-.141a1.492,1.492,0,0,0-.635.106.53.53,0,0,0-.318.247.651.651,0,0,0-.141.459,1.269,1.269,0,0,0,.071.388.792.792,0,0,0,.424.353,2.065,2.065,0,0,0,.459.071c1.412,0,2.824-.141,4.2-.141s2.718.141,4.13.141a1,1,0,0,0,.6-.141.49.49,0,0,0,.247-.282.7.7,0,0,0,.071-.388.71.71,0,0,0-.141-.459.875.875,0,0,0-.53-.282,2.345,2.345,0,0,0-.459-.035h-.141a5.649,5.649,0,0,1-1.271-.106,1.89,1.89,0,0,1-.459-.212.835.835,0,0,1-.282-.53,5.369,5.369,0,0,1-.071-1.165v-6.707a3.23,3.23,0,0,1,.035-.6c0-.106.035-.176.035-.247l.035-.071h0l.071-.035a1.989,1.989,0,0,1,.247-.035h.212c.706,0,1.2.035,1.589.071a1.669,1.669,0,0,1,.671.212,1.747,1.747,0,0,1,.671.741c.247.388.494.918.883,1.659h0l3.636,7.2h0a7.684,7.684,0,0,0,.494.883,1.506,1.506,0,0,0,.424.388,1.219,1.219,0,0,0,.635.176H297a1.141,1.141,0,0,0,.565-.106.653.653,0,0,0,.318-.247.865.865,0,0,0,.141-.424.718.718,0,0,0-.212-.53C297.781,286.71,297.534,286.675,297.357,286.64Zm-12.214-11.261c-.247,0-.565.035-.847.035a1.141,1.141,0,0,1-.565-.106l-.106-.071c-.035-.035-.035-.071-.035-.177v-6.6c0-.635,0-1.13.035-1.518a1.744,1.744,0,0,1,.177-.6.719.719,0,0,1,.212-.247,1.387,1.387,0,0,1,.706-.212,13.577,13.577,0,0,1,1.377-.071,5.139,5.139,0,0,1,3.671,1.271,4.838,4.838,0,0,1,1.306,3.671,4.2,4.2,0,0,1-1.553,3.495h0A6.6,6.6,0,0,1,285.143,275.379Z" transform="translate(-222.342 -263.765)" fill="#004438"/>
  <path id="Trazado_8675" data-name="Trazado 8675" d="M364.622,286.64a2.886,2.886,0,0,0-.494-.035,1.825,1.825,0,0,1-1.518-.741,11.644,11.644,0,0,1-1.024-1.765h0l-3-5.754h0a10.475,10.475,0,0,0-.918-1.553,4.555,4.555,0,0,0-.565-.6,7.912,7.912,0,0,0,3.212-1.624,5.551,5.551,0,0,0,1.871-4.236,5.224,5.224,0,0,0-2.33-4.519,8.867,8.867,0,0,0-5.013-1.412c-2.118,0-4.2.141-6.319.141-1.165,0-2.4-.141-3.636-.141a1.066,1.066,0,0,0-.671.177.842.842,0,0,0-.318.706.765.765,0,0,0,.177.494.808.808,0,0,0,.565.247,2.5,2.5,0,0,0,.494.035,5.864,5.864,0,0,1,1.271.106,1.13,1.13,0,0,1,.459.176.837.837,0,0,1,.282.494,4.862,4.862,0,0,1,.071,1.13V284.7a8.322,8.322,0,0,1-.035,1.024,1.191,1.191,0,0,1-.141.424.917.917,0,0,1-.53.353,5.71,5.71,0,0,1-1.341.141h-.141a1.492,1.492,0,0,0-.635.106.53.53,0,0,0-.318.247.651.651,0,0,0-.141.459,1.27,1.27,0,0,0,.071.388.793.793,0,0,0,.424.353,2.429,2.429,0,0,0,.459.071c1.412,0,2.824-.141,4.2-.141s2.718.141,4.13.141a1,1,0,0,0,.6-.141.722.722,0,0,0,.282-.282.712.712,0,0,0,.106-.388.709.709,0,0,0-.671-.741,2.345,2.345,0,0,0-.459-.035h-.141a5.648,5.648,0,0,1-1.271-.106,1.889,1.889,0,0,1-.459-.212.835.835,0,0,1-.282-.53,5.372,5.372,0,0,1-.071-1.165v-6.707a3.428,3.428,0,0,1,.035-.6c0-.106.035-.176.035-.247l.035-.071h0l.071-.035c.071,0,.141-.035.247-.035h.212c.706,0,1.2.035,1.589.071a1.669,1.669,0,0,1,.671.212,1.748,1.748,0,0,1,.671.741c.247.388.494.918.883,1.659h0l3.636,7.2h0a7.675,7.675,0,0,0,.494.883,1.506,1.506,0,0,0,.424.388,1.219,1.219,0,0,0,.635.176h3.918a1.141,1.141,0,0,0,.565-.106.653.653,0,0,0,.318-.247.865.865,0,0,0,.141-.424.718.718,0,0,0-.212-.53A.737.737,0,0,0,364.622,286.64ZM350.89,268.424c0-.635,0-1.13.035-1.518a1.744,1.744,0,0,1,.177-.6.719.719,0,0,1,.212-.247,1.387,1.387,0,0,1,.706-.212,13.558,13.558,0,0,1,1.377-.071,5.139,5.139,0,0,1,3.671,1.271,4.838,4.838,0,0,1,1.306,3.671,4.2,4.2,0,0,1-1.553,3.495h0a6.777,6.777,0,0,1-4.413,1.165c-.247,0-.565.035-.847.035a1.141,1.141,0,0,1-.565-.106l-.106-.071c-.035-.035-.035-.071-.035-.176v-6.637Z" transform="translate(-265.885 -263.765)" fill="#004438"/>
  <path id="Trazado_8676" data-name="Trazado 8676" d="M418.5,266.518a.76.76,0,0,1,.53-.318,5.709,5.709,0,0,1,1.341-.141,2.781,2.781,0,0,0,.706-.071.671.671,0,0,0,.388-.247.887.887,0,0,0,.212-.494.759.759,0,0,0-.353-.671,1.089,1.089,0,0,0-.635-.177c-1.412,0-2.824.141-4.2.141s-2.718-.141-4.13-.141a1.09,1.09,0,0,0-.635.177.952.952,0,0,0-.247.282,1.27,1.27,0,0,0-.071.388.765.765,0,0,0,.177.494,1.052,1.052,0,0,0,.6.282,2.5,2.5,0,0,0,.494.035,5.865,5.865,0,0,1,1.271.106,1.129,1.129,0,0,1,.459.176.836.836,0,0,1,.282.494,4.687,4.687,0,0,1,.071,1.094V284.7a8.33,8.33,0,0,1-.035,1.024,1.191,1.191,0,0,1-.141.424.917.917,0,0,1-.53.353,5.708,5.708,0,0,1-1.341.141h-.141a1.492,1.492,0,0,0-.635.106.53.53,0,0,0-.318.247.651.651,0,0,0-.141.459,1.27,1.27,0,0,0,.071.388.793.793,0,0,0,.424.353,2.066,2.066,0,0,0,.459.071c1.412,0,2.824-.141,4.2-.141s2.718.141,4.13.141a1,1,0,0,0,.6-.141.723.723,0,0,0,.282-.282.7.7,0,0,0,.071-.388.709.709,0,0,0-.141-.459.875.875,0,0,0-.53-.282,2.345,2.345,0,0,0-.459-.035h-.141a5.644,5.644,0,0,1-1.271-.106,1.888,1.888,0,0,1-.459-.212.835.835,0,0,1-.282-.53,5.374,5.374,0,0,1-.071-1.165V268.036a8.64,8.64,0,0,1,.035-1.024C418.39,266.73,418.425,266.589,418.5,266.518Z" transform="translate(-309.557 -263.765)" fill="#004438"/>
  <path id="Trazado_8677" data-name="Trazado 8677" d="M474.723,275.2a1.772,1.772,0,0,0-.424-.071c-1.306,0-2.577.141-3.813.141-1.306,0-2.648-.141-3.989-.141a2.408,2.408,0,0,0-.671.071.6.6,0,0,0-.353.247.843.843,0,0,0-.176.494.617.617,0,0,0,.141.424.858.858,0,0,0,.494.318,2.171,2.171,0,0,0,.459.035h.141a10.62,10.62,0,0,1,1.236.071,1.325,1.325,0,0,1,.494.176.878.878,0,0,1,.353.53,5.643,5.643,0,0,1,.106,1.271v3.53a5.888,5.888,0,0,1-.106,1.377,1.621,1.621,0,0,1-.459.988h0a4.539,4.539,0,0,1-1.871.777,11.662,11.662,0,0,1-2.118.177c-3.107,0-5.683-.812-7.731-3.177h0a10.607,10.607,0,0,1-2.577-7.307,12.855,12.855,0,0,1,2.577-7.7h0a8.854,8.854,0,0,1,7.166-3.142,7.568,7.568,0,0,1,3.53.706,4.758,4.758,0,0,1,2.189,2.365c.212.388.353.777.53,1.094a3.311,3.311,0,0,0,.318.424.893.893,0,0,0,.53.212.8.8,0,0,0,.706-.388,1.2,1.2,0,0,0,.177-.671h0l-.071-1.553v-.035c-.071-.565,0-1.059-.106-1.589a1.226,1.226,0,0,0-.353-.706,1.678,1.678,0,0,0-.812-.494h0a17.876,17.876,0,0,0-6.072-1.059,15.488,15.488,0,0,0-9.884,3.565,12.038,12.038,0,0,0-4.483,9.284,11.27,11.27,0,0,0,4.413,8.931h0a14.205,14.205,0,0,0,9.214,2.965,15,15,0,0,0,8.049-2.083h0a2.019,2.019,0,0,0,.671-.671,1.52,1.52,0,0,0,.141-.777V278.38a3.029,3.029,0,0,1,.071-.812.925.925,0,0,1,.212-.494h0a.868.868,0,0,1,.353-.141c.177-.035.388-.035.565-.071l.671-.071a1.275,1.275,0,0,0,.6-.106.765.765,0,0,0,.318-.282.939.939,0,0,0,.106-.424.711.711,0,0,0-.106-.388A.452.452,0,0,0,474.723,275.2Z" transform="translate(-334.401 -262.6)" fill="#004438"/>
  <path id="Trazado_8678" data-name="Trazado 8678" d="M553.728,264.271a2.172,2.172,0,0,0-.459-.035c-.988,0-1.942.141-2.895.141-1.094,0-2.189-.141-3.318-.141a1.529,1.529,0,0,0-.671.141,1.143,1.143,0,0,0-.318.282.637.637,0,0,0-.106.424.883.883,0,0,0,.141.459,1.186,1.186,0,0,0,.53.318,2.5,2.5,0,0,0,.494.035h.141a3.971,3.971,0,0,1,1.165.106,1.187,1.187,0,0,1,.741.565h0a3.881,3.881,0,0,1,.318,1.341,14.759,14.759,0,0,1,.071,1.73v10.837a10.376,10.376,0,0,1-.177,2.4,4.138,4.138,0,0,1-1.059,2.012h0a8.182,8.182,0,0,1-5.754,1.906,10.468,10.468,0,0,1-3.212-.494,4.338,4.338,0,0,1-2.471-1.765h0a5.027,5.027,0,0,1-.6-2.153,21.556,21.556,0,0,1-.106-2.577v-12a4.354,4.354,0,0,1,.071-1.024,1.19,1.19,0,0,1,.141-.424.76.76,0,0,1,.53-.318,5.71,5.71,0,0,1,1.341-.141,2.783,2.783,0,0,0,.706-.071.671.671,0,0,0,.388-.247.887.887,0,0,0,.212-.494.869.869,0,0,0-.353-.706,1.089,1.089,0,0,0-.635-.176c-1.412,0-2.824.141-4.2.141s-2.718-.141-4.13-.141a1.09,1.09,0,0,0-.635.176.953.953,0,0,0-.247.282.7.7,0,0,0-.071.388.766.766,0,0,0,.176.494,1.052,1.052,0,0,0,.6.282,2.5,2.5,0,0,0,.494.035,5.863,5.863,0,0,1,1.271.106,1.13,1.13,0,0,1,.459.176.837.837,0,0,1,.282.494,4.691,4.691,0,0,1,.071,1.094v12.85a10.928,10.928,0,0,0,.318,3.248,4.74,4.74,0,0,0,2.012,2.718h0c1.942,1.412,4.836,1.765,7.06,1.765,2.471,0,5.189-.353,7.166-2.047h0a5.839,5.839,0,0,0,1.871-2.859,12.118,12.118,0,0,0,.282-3.248V268.648a8.106,8.106,0,0,1,.177-2.083.913.913,0,0,1,.388-.494,2.221,2.221,0,0,1,1.024-.212,3.753,3.753,0,0,0,.812-.071,1.338,1.338,0,0,0,.459-.212.711.711,0,0,0,.247-.565.651.651,0,0,0-.141-.459A4.292,4.292,0,0,0,553.728,264.271Z" transform="translate(-385.837 -263.635)" fill="#004438"/>
  <path id="Trazado_8679" data-name="Trazado 8679" d="M627.786,282.092a.645.645,0,0,0-.53-.212.661.661,0,0,0-.529.282,3.28,3.28,0,0,0-.388.671,4.589,4.589,0,0,0-.177.494h0a4.033,4.033,0,0,1-2.33,2.683,10.807,10.807,0,0,1-3.813.424,15.378,15.378,0,0,1-1.906-.071,4.025,4.025,0,0,1-1.024-.212,1.6,1.6,0,0,1-.918-.812,4.481,4.481,0,0,1-.353-1.977v-6.425a2.63,2.63,0,0,1,.071-.635c.035-.106.071-.141.106-.141a.629.629,0,0,1,.388-.106,7.128,7.128,0,0,1,.953-.035,21.657,21.657,0,0,1,4.377.318h0a.732.732,0,0,1,.353.212,1.79,1.79,0,0,1,.424.777,5.316,5.316,0,0,1,.247,1.13h0a1.682,1.682,0,0,0,.177.494c.035.106.141.176.247.282a.757.757,0,0,0,.424.141.689.689,0,0,0,.247-.035.733.733,0,0,0,.388-.353,1.586,1.586,0,0,0,.106-.635h0c-.035-1.165-.106-2.295-.177-3.46.071-1.024.141-2.118.177-3.177h0a.641.641,0,0,0-.282-.565.855.855,0,0,0-.459-.141.678.678,0,0,0-.424.141.9.9,0,0,0-.318.424,3.287,3.287,0,0,0-.106.353h0a10.485,10.485,0,0,1-.353,1.589,1.3,1.3,0,0,1-.282.494.49.49,0,0,1-.353.177h0a25.274,25.274,0,0,1-3.283.141h-1.13a6.021,6.021,0,0,1-.883-.035.76.76,0,0,1-.353-.071.462.462,0,0,1-.212-.282,3.611,3.611,0,0,1-.071-.988v-5.825a2.536,2.536,0,0,1,.071-.6.511.511,0,0,1,.318-.282h0a3.387,3.387,0,0,1,.529-.106,16.708,16.708,0,0,1,2.153-.106,14.611,14.611,0,0,1,3.954.353,2.6,2.6,0,0,1,1.236.706,4.916,4.916,0,0,1,.847,1.306h0l.565,1.024a1.59,1.59,0,0,0,.247.494.952.952,0,0,0,.247.282.757.757,0,0,0,.424.141.642.642,0,0,0,.388-.141.984.984,0,0,0,.247-.459,1.584,1.584,0,0,0,.035-.388V266.03c0-.141.035-.353.035-.6a1.333,1.333,0,0,0-.141-.706,1.219,1.219,0,0,0-.282-.318.977.977,0,0,0-.459-.106c-3.142,0-6.248.141-9.425.141-2.259,0-4.624-.141-6.954-.141a1.057,1.057,0,0,0-.635.212.874.874,0,0,0-.318.671.641.641,0,0,0,.212.494,1,1,0,0,0,.6.247,2.854,2.854,0,0,0,.53.035,5.862,5.862,0,0,1,1.271.106,1.887,1.887,0,0,1,.459.212.942.942,0,0,1,.282.565,5.37,5.37,0,0,1,.071,1.165v16.38a9.626,9.626,0,0,1-.035,1.094,1.174,1.174,0,0,1-.141.459.681.681,0,0,1-.494.353,4.279,4.279,0,0,1-1.341.141,2.523,2.523,0,0,0-.706.071,1.06,1.06,0,0,0-.388.212.715.715,0,0,0-.212.494.842.842,0,0,0,.318.706,1.089,1.089,0,0,0,.635.177c.777,0,1.589-.141,2.294-.141h14.791a.47.47,0,0,0,.318-.212,1.446,1.446,0,0,0,.106-.282l.565-3.918a3.865,3.865,0,0,0,.141-.953C627.963,282.445,627.927,282.268,627.786,282.092Z" transform="translate(-437.337 -263.7)" fill="#004438"/>
  <path id="Trazado_8680" data-name="Trazado 8680" d="M689.079,275.267h0A12.387,12.387,0,0,0,685.3,272.9h0A30.077,30.077,0,0,1,681.207,271a5.512,5.512,0,0,1-1.553-1.412,3.041,3.041,0,0,1-.6-1.871,3.216,3.216,0,0,1,1.341-2.718,5.038,5.038,0,0,1,3.106-.883,4.2,4.2,0,0,1,2.965.918,5.993,5.993,0,0,1,1.518,2.753h0a4.471,4.471,0,0,0,.177.53.722.722,0,0,0,.247.353.671.671,0,0,0,.459.176.7.7,0,0,0,.565-.247.742.742,0,0,0,.177-.53h0c-.035-.953-.106-1.942-.141-2.895h0a4.072,4.072,0,0,0-.106-.918.821.821,0,0,0-.282-.424,1.384,1.384,0,0,0-.494-.282h0a15.781,15.781,0,0,0-5.048-.847,8.15,8.15,0,0,0-5.119,1.73,6.059,6.059,0,0,0-2.33,4.836,5.307,5.307,0,0,0,1.765,4.024,13.59,13.59,0,0,0,3.777,2.259h0l1.871.812h0a8.876,8.876,0,0,1,3.071,1.977,4.661,4.661,0,0,1,1.236,3.212,4.205,4.205,0,0,1-1.589,3.248,5.745,5.745,0,0,1-3.565,1.236,4.722,4.722,0,0,1-3.6-1.306,5.92,5.92,0,0,1-1.483-3.565h0c-.035-.106-.035-.459-.106-.741a1.337,1.337,0,0,0-.212-.459.72.72,0,0,0-.53-.282.709.709,0,0,0-.459.141,1.338,1.338,0,0,0-.353.459,3.669,3.669,0,0,0-.106.424h0a26.449,26.449,0,0,0-.106,2.895v.565a3.04,3.04,0,0,0,.106.953,1.355,1.355,0,0,0,.565.847h0a12.137,12.137,0,0,0,5.754,1.483,9.362,9.362,0,0,0,6.107-2.012h0a7.152,7.152,0,0,0,2.718-5.507A7.049,7.049,0,0,0,689.079,275.267Z" transform="translate(-480.556 -262.665)" fill="#004438"/>
</svg>
