<svg xmlns="http://www.w3.org/2000/svg" xmlns:xlink="http://www.w3.org/1999/xlink" width="186.752" height="48.382" viewBox="0 0 186.752 48.382">
  <defs>
    <clipPath id="clip-path">
      <rect id="Rectángulo_2465" data-name="Rectángulo 2465" width="186.752" height="48.382" fill="none"/>
    </clipPath>
  </defs>
  <g id="Grupo_8817" data-name="Grupo 8817" clip-path="url(#clip-path)">
    <path id="Trazado_8681" data-name="Trazado 8681" d="M71.2,26.992a2.124,2.124,0,0,1,2.168-2.187,2.039,2.039,0,0,1,1.982,1.367h-.542a1.466,1.466,0,0,0-1.439-.909,1.73,1.73,0,0,0,.012,3.457,1.471,1.471,0,0,0,1.566-1.408h-1.71v-.428H75.5a2.081,2.081,0,0,1-2.12,2.295A2.122,2.122,0,0,1,71.2,26.992" transform="translate(50.646 17.644)" fill="#15504a"/>
    <path id="Trazado_8682" data-name="Trazado 8682" d="M74.516,24.852h1.427A1.227,1.227,0,0,1,77.317,26.1a1.247,1.247,0,0,1-.88,1.217l.987,1.754h-.566l-.934-1.706H75v1.706h-.488Zm1.427,2.078a.788.788,0,0,0,.868-.832.8.8,0,0,0-.9-.813H75V26.93Z" transform="translate(53.003 17.677)" fill="#15504a"/>
    <path id="Trazado_8683" data-name="Trazado 8683" d="M77.071,27.557V24.851h.488v2.7a1.089,1.089,0,1,0,2.175-.005V24.851h.481v2.7a1.572,1.572,0,1,1-3.144.007" transform="translate(54.82 17.676)" fill="#15504a"/>
    <path id="Trazado_8684" data-name="Trazado 8684" d="M79.9,24.851h1.513a1.209,1.209,0,0,1,1.289,1.266A1.238,1.238,0,0,1,81.417,27.4H80.392v1.669H79.9Zm1.47,2.115a.8.8,0,0,0,.832-.849.79.79,0,0,0-.832-.832h-.982v1.68Z" transform="translate(56.835 17.676)" fill="#15504a"/>
    <path id="Trazado_8685" data-name="Trazado 8685" d="M82.147,26.992a2.181,2.181,0,1,1,2.175,2.187,2.134,2.134,0,0,1-2.175-2.187m3.856,0a1.675,1.675,0,1,0-1.675,1.728A1.658,1.658,0,0,0,86,26.992" transform="translate(58.431 17.644)" fill="#15504a"/>
    <path id="Trazado_8686" data-name="Trazado 8686" d="M87.215,26.992a2.124,2.124,0,0,1,2.168-2.187,2.039,2.039,0,0,1,1.982,1.367h-.542a1.466,1.466,0,0,0-1.439-.909A1.73,1.73,0,0,0,89.4,28.72a1.471,1.471,0,0,0,1.566-1.408h-1.71v-.428H91.51a2.081,2.081,0,0,1-2.12,2.295,2.122,2.122,0,0,1-2.175-2.187" transform="translate(62.036 17.644)" fill="#15504a"/>
    <path id="Trazado_8687" data-name="Trazado 8687" d="M92,24.851h.573l1.619,4.217H93.68l-.378-1H91.266l-.38,1h-.512Zm1.133,2.771-.832-2.2h-.036l-.832,2.2Z" transform="translate(64.283 17.676)" fill="#15504a"/>
    <path id="Trazado_8688" data-name="Trazado 8688" d="M93.388,24.852h1.427A1.227,1.227,0,0,1,96.189,26.1a1.247,1.247,0,0,1-.88,1.217l.987,1.754h-.566L94.8,27.362h-.921v1.706h-.488Zm1.427,2.078a.788.788,0,0,0,.868-.832.8.8,0,0,0-.9-.813h-.909V26.93Z" transform="translate(66.426 17.677)" fill="#15504a"/>
    <path id="Trazado_8689" data-name="Trazado 8689" d="M95.915,24.852h1.427A1.227,1.227,0,0,1,98.716,26.1a1.247,1.247,0,0,1-.88,1.217l.987,1.754h-.566l-.934-1.706H96.4v1.706h-.488Zm1.427,2.078a.788.788,0,0,0,.868-.832.8.8,0,0,0-.9-.813H96.4V26.93Z" transform="translate(68.224 17.677)" fill="#15504a"/>
    <rect id="Rectángulo_2463" data-name="Rectángulo 2463" width="0.488" height="4.217" transform="translate(168.597 42.527)" fill="#15504a"/>
    <path id="Trazado_8690" data-name="Trazado 8690" d="M99.474,26.992a2.124,2.124,0,0,1,2.168-2.187,2.039,2.039,0,0,1,1.982,1.367h-.542a1.466,1.466,0,0,0-1.439-.909,1.73,1.73,0,0,0,.012,3.457,1.471,1.471,0,0,0,1.566-1.408h-1.71v-.428h2.259a2.081,2.081,0,0,1-2.12,2.295,2.122,2.122,0,0,1-2.175-2.187" transform="translate(70.755 17.644)" fill="#15504a"/>
    <path id="Trazado_8691" data-name="Trazado 8691" d="M102.734,27.557V24.851h.488v2.7a1.089,1.089,0,1,0,2.175-.005V24.851h.481v2.7a1.572,1.572,0,1,1-3.144.007" transform="translate(73.074 17.676)" fill="#15504a"/>
    <path id="Trazado_8692" data-name="Trazado 8692" d="M105.405,24.851h2.4V25.3h-1.915v1.4h1.651v.44h-1.651v1.487h1.982v.44h-2.469Z" transform="translate(74.974 17.676)" fill="#15504a"/>
    <path id="Trazado_8693" data-name="Trazado 8693" d="M25.767,5.749H21.923a.413.413,0,0,0-.414.414V9.336l-.185-.226a10.856,10.856,0,0,0-8.6-3.994C5.351,5.116,0,10.9,0,18.863,0,26.9,5.353,32.514,13.018,32.514a10.756,10.756,0,0,0,8.452-3.939l.185-.222V32.5c0,5.269-2.836,8.053-8.2,8.053-3.744,0-6.34-1.573-6.944-4.2a.415.415,0,0,0-.4-.322H2.457a.414.414,0,0,0-.407.489c.914,5,5.391,8.223,11.406,8.223,7.85,0,12.725-4.689,12.725-12.239V6.163a.413.413,0,0,0-.414-.414M13.261,28.23c-5.158,0-8.491-3.676-8.491-9.368,0-5.543,3.452-9.414,8.394-9.414,5.079,0,8.491,3.784,8.491,9.414,0,5.516-3.452,9.368-8.394,9.368" transform="translate(0 3.639)" fill="#0cf25d"/>
    <path id="Trazado_8694" data-name="Trazado 8694" d="M78.7,5.749H74.854a.413.413,0,0,0-.414.414V9.336l-.185-.226a10.856,10.856,0,0,0-8.6-3.994c-7.374,0-12.725,5.781-12.725,13.747,0,8.038,5.353,13.651,13.018,13.651A10.756,10.756,0,0,0,74.4,28.574l.185-.222V32.5c0,5.269-2.836,8.053-8.2,8.053-3.744,0-6.34-1.573-6.944-4.2a.415.415,0,0,0-.4-.322h-3.65a.414.414,0,0,0-.407.489c.912,5,5.391,8.223,11.406,8.223,7.85,0,12.725-4.689,12.725-12.239V6.163a.413.413,0,0,0-.414-.414M66.192,28.23c-5.158,0-8.491-3.676-8.491-9.368,0-5.543,3.452-9.414,8.394-9.414,5.079,0,8.491,3.784,8.491,9.414,0,5.516-3.452,9.368-8.394,9.368" transform="translate(37.65 3.639)" fill="#15504a"/>
    <path id="Trazado_8695" data-name="Trazado 8695" d="M30.991,11.826H18.582a.414.414,0,0,0-.414.414v3.6a.414.414,0,0,0,.414.414H30.991a.414.414,0,0,0,.414-.414v-3.6a.414.414,0,0,0-.414-.414" transform="translate(12.923 8.412)" fill="#15504a"/>
    <path id="Trazado_8696" data-name="Trazado 8696" d="M113.952,5.526h-3.844a.413.413,0,0,0-.414.414V9.113l-.185-.226a10.853,10.853,0,0,0-8.6-3.994c-7.374,0-12.725,5.781-12.725,13.747,0,8.038,5.353,13.651,13.018,13.651a10.756,10.756,0,0,0,8.452-3.939l.185-.222v3.115a.415.415,0,0,0,.414.416h3.7a.415.415,0,0,0,.414-.416V5.94a.413.413,0,0,0-.414-.414M101.446,28.007c-5.158,0-8.491-3.676-8.491-9.368,0-5.543,3.452-9.414,8.394-9.414,5.079,0,8.491,3.784,8.491,9.414,0,5.516-3.452,9.368-8.394,9.368" transform="translate(62.726 3.48)" fill="#15504a"/>
    <path id="Trazado_8697" data-name="Trazado 8697" d="M54.768,0H50.924a.415.415,0,0,0-.414.416V12.975l-.185-.226a10.856,10.856,0,0,0-8.6-3.994C34.352,8.755,29,14.536,29,22.5c0,8.038,5.353,13.651,13.018,13.651a10.756,10.756,0,0,0,8.452-3.939l.185-.222v3.115a.415.415,0,0,0,.414.416h3.7a.415.415,0,0,0,.414-.416V.416A.415.415,0,0,0,54.768,0M42.262,31.869c-5.158,0-8.491-3.676-8.491-9.368,0-5.543,3.452-9.414,8.394-9.414,5.079,0,8.491,3.784,8.491,9.414,0,5.516-3.452,9.368-8.394,9.368" transform="translate(20.628 0)" fill="#15504a"/>
    <path id="Trazado_8698" data-name="Trazado 8698" d="M51.513,5.485H47.67a.416.416,0,0,0-.416.414V31.2a.416.416,0,0,0,.416.414h3.844a.414.414,0,0,0,.414-.414V5.9a.414.414,0,0,0-.414-.414" transform="translate(33.612 3.901)" fill="#15504a"/>
    <path id="Trazado_8699" data-name="Trazado 8699" d="M49.922,0a2.994,2.994,0,1,0,2.995,2.995A3,3,0,0,0,49.922,0" transform="translate(33.379 0)" fill="#15504a"/>
    <path id="Trazado_8700" data-name="Trazado 8700" d="M75.435,5.485H71.592a.416.416,0,0,0-.416.414V31.2a.416.416,0,0,0,.416.414h3.844a.414.414,0,0,0,.414-.414V5.9a.414.414,0,0,0-.414-.414" transform="translate(50.627 3.901)" fill="#15504a"/>
    <path id="Trazado_8701" data-name="Trazado 8701" d="M73.844,0a2.994,2.994,0,1,0,2.995,2.995A3,3,0,0,0,73.844,0" transform="translate(50.395 0)" fill="#15504a"/>
    <path id="Trazado_8702" data-name="Trazado 8702" d="M94.686,31.711A6.867,6.867,0,0,1,92.2,33.025a10.416,10.416,0,0,1-3.056.453,8.118,8.118,0,0,1-5.925-2.054,7.841,7.841,0,0,1-2.1-5.877v-13.9h-4.3V7.872h4.3V2.331h4.588V7.872h7.259v3.773H85.705V25.356a4.437,4.437,0,0,0,1.027,3.152,3.817,3.817,0,0,0,2.937,1.1,5.53,5.53,0,0,0,3.583-1.193Z" transform="translate(54.642 1.658)" fill="#15504a"/>
    <rect id="Rectángulo_2464" data-name="Rectángulo 2464" width="4.586" height="35.446" transform="translate(182.143 1.054)" fill="#15504a"/>
    <path id="Trazado_8703" data-name="Trazado 8703" d="M107.394,27.862h.488a.927.927,0,0,0,1.037.88c.553,0,.951-.27.951-.71,0-1.319-2.332-.4-2.332-2.084a1.2,1.2,0,0,1,1.35-1.128,1.259,1.259,0,0,1,1.386,1.224h-.5c0-.483-.318-.777-.892-.777-.6,0-.854.33-.854.681,0,1.15,2.336.349,2.336,2.054,0,.662-.541,1.193-1.463,1.193a1.393,1.393,0,0,1-1.506-1.331" transform="translate(76.389 17.654)" fill="#15504a"/>
  </g>
</svg>
