<svg xmlns="http://www.w3.org/2000/svg" xmlns:xlink="http://www.w3.org/1999/xlink" width="258.394" height="48.102" viewBox="0 0 258.394 48.102">
  <defs>
    <clipPath id="clip-path">
      <rect id="Rectángulo_830" data-name="Rectángulo 830" width="258.394" height="48.102" fill="#fff"/>
    </clipPath>
  </defs>
  <g id="Grupo_1086" data-name="Grupo 1086" clip-path="url(#clip-path)">
    <path id="Trazado_3314" data-name="Trazado 3314" d="M299.479,22.28a12.173,12.173,0,0,0-6.274-1.519,13.021,13.021,0,0,0-6.426,1.558,10.984,10.984,0,0,0-4.428,4.529,14.675,14.675,0,0,0-1.593,7.056,14.675,14.675,0,0,0,1.593,7.056,10.9,10.9,0,0,0,4.478,4.545,13.727,13.727,0,0,0,6.679,1.558,14.665,14.665,0,0,0,4.654-.709,10.59,10.59,0,0,0,3.668-2.048,10.167,10.167,0,0,0,2.453-3.162L300,39.119A6.826,6.826,0,0,1,297.52,41.8a7.767,7.767,0,0,1-4.1.962,7.485,7.485,0,0,1-3.949-1.013,6.62,6.62,0,0,1-2.578-2.987,10.215,10.215,0,0,1-.829-3.236H304.6c.066-.389.117-.876.152-1.418s.051-1.114.051-1.721a12.761,12.761,0,0,0-1.382-5.966,10.165,10.165,0,0,0-3.945-4.143m-13.307,9.1a9.942,9.942,0,0,1,.658-2.3,6.422,6.422,0,0,1,2.477-3.01,7.008,7.008,0,0,1,3.8-1.013,6.111,6.111,0,0,1,4.7,1.846,6.963,6.963,0,0,1,1.667,4.478ZM268.885,40.77a9.006,9.006,0,0,1-5.339,1.6,9.872,9.872,0,0,1-5.452-1.468,9.308,9.308,0,0,1-3.5-4.284,17.034,17.034,0,0,1-1.211-6.753,16.034,16.034,0,0,1,1.289-6.78,9.682,9.682,0,0,1,3.614-4.245,9.938,9.938,0,0,1,5.413-1.468,8.333,8.333,0,0,1,5.008,1.394,8.618,8.618,0,0,1,2.936,4.377l5.109-2.278a11.607,11.607,0,0,0-7.419-7.29,18.256,18.256,0,0,0-5.947-.911,16.137,16.137,0,0,0-8.287,2.08,13.876,13.876,0,0,0-5.452,5.919,20.379,20.379,0,0,0-1.924,9.21,20.354,20.354,0,0,0,1.924,9.206A13.876,13.876,0,0,0,255.1,45a16.172,16.172,0,0,0,8.349,2.076,16.467,16.467,0,0,0,6.021-1.063,13.141,13.141,0,0,0,4.759-3.162,13.357,13.357,0,0,0,3.034-5.129L272.1,36a8.711,8.711,0,0,1-3.213,4.77M333.44,21.03v-7.2l-5.452,1.519V21.03h-3.766a11.241,11.241,0,0,0-1.168,0,11.7,11.7,0,0,0-5.421,1.063,7.853,7.853,0,0,0-3.01,3.766l-.506-4.584h-4.6V46.588h5.413V33.156a8.249,8.249,0,0,1,.989-4.249,6.576,6.576,0,0,1,2.5-2.5,8.752,8.752,0,0,1,4.143-.693h5.452V39.89a7.985,7.985,0,0,0,1.063,4.175,5.7,5.7,0,0,0,2.835,2.3,10.96,10.96,0,0,0,3.984.7,11.623,11.623,0,0,0,3.77-.58,8.483,8.483,0,0,0,2.858-1.6l-1.211-3.945a6.882,6.882,0,0,1-1.873,1.188,6.038,6.038,0,0,1-2.379.432,3.894,3.894,0,0,1-2.656-.861,3.421,3.421,0,0,1-.985-2.726V25.707h14.062V46.564h5.429V21.03ZM350.186,9.16a3.5,3.5,0,1,0,3.5,3.5,3.5,3.5,0,0,0-3.5-3.5M408.14,34.8q-1.5-1.694-5.137-2.4l-5.767-1.215a5.348,5.348,0,0,1-2.726-1.168,2.414,2.414,0,0,1-.779-1.772,2.477,2.477,0,0,1,.6-1.671,4.066,4.066,0,0,1,1.772-1.114,8.541,8.541,0,0,1,2.784-.389,8.241,8.241,0,0,1,3.894.989,6.383,6.383,0,0,1,2.835,3.01l3.742-3.139a9.475,9.475,0,0,0-4.1-3.82,14.386,14.386,0,0,0-6.476-1.34,13.385,13.385,0,0,0-5.643,1.086,8.566,8.566,0,0,0-3.567,2.858,6.677,6.677,0,0,0-1.215,3.848,6.351,6.351,0,0,0,1.721,4.58q1.717,1.8,5.767,2.605l5.347,1.106a4.537,4.537,0,0,1,2.407,1.137,2.586,2.586,0,0,1-.736,3.972,7.249,7.249,0,0,1-3.692.81,9.692,9.692,0,0,1-5.035-1.242,8.364,8.364,0,0,1-3.213-3.314l-3.75,3.24a11.958,11.958,0,0,0,4.957,4.147,16.163,16.163,0,0,0,6.932,1.468,14.432,14.432,0,0,0,5.666-1.013,8.117,8.117,0,0,0,3.641-2.858,7.369,7.369,0,0,0,1.266-4.284,6.037,6.037,0,0,0-1.5-4.116Zm-31.5.179a10.076,10.076,0,0,1-.53,3.439,6.267,6.267,0,0,1-1.491,2.4,5.918,5.918,0,0,1-2.154,1.367,7.105,7.105,0,0,1-2.453.432,5.992,5.992,0,0,1-4.1-1.293q-1.468-1.293-1.468-4.728V21.022H359.03V37.978a9.794,9.794,0,0,0,1.266,5.265,7.354,7.354,0,0,0,3.361,2.932,11.4,11.4,0,0,0,4.591.888,11.63,11.63,0,0,0,5.261-1.114,8.179,8.179,0,0,0,3.54-3.5l.253,4.1h4.755V21.006h-5.413Z" transform="translate(-151.251 -5.593)"/>
    <path id="Trazado_3315" data-name="Trazado 3315" d="M184.392,0h0a2.193,2.193,0,0,1,2.192,2.192V45.909A2.193,2.193,0,0,1,184.4,48.1h0a2.193,2.193,0,0,1-2.192-2.192V2.192A2.193,2.193,0,0,1,184.392,0" transform="translate(-111.247 0)" fill="#06f7b2"/>
    <path id="Trazado_3316" data-name="Trazado 3316" d="M209.222,0h0a2.193,2.193,0,0,1,2.192,2.192V45.909a2.193,2.193,0,0,1-2.192,2.192h0a2.193,2.193,0,0,1-2.192-2.192V2.192A2.193,2.193,0,0,1,209.222,0" transform="translate(-126.407 0)" fill="#06f7b2"/>
    <path id="Trazado_3317" data-name="Trazado 3317" d="M15.515,51.732a15.511,15.511,0,0,1-8.178-2.087,14.137,14.137,0,0,1-5.39-5.923A20.327,20.327,0,0,1,0,34.442a19.7,19.7,0,0,1,2.009-9.2A14.343,14.343,0,0,1,7.7,19.262a16.745,16.745,0,0,1,8.466-2.107A16.234,16.234,0,0,1,24.635,19.1a13.563,13.563,0,0,1,5.152,5.97l-5.035,2.387a7.789,7.789,0,0,0-3.178-4.194,9.855,9.855,0,0,0-5.366-1.4,10.193,10.193,0,0,0-5.518,1.476,9.8,9.8,0,0,0-3.684,4.284,15.8,15.8,0,0,0-1.324,6.788A18.226,18.226,0,0,0,6.85,41.253a8.908,8.908,0,0,0,3.532,4.284A10.813,10.813,0,0,0,16.2,47.008a12.236,12.236,0,0,0,3.5-.483A8.536,8.536,0,0,0,22.556,45.1a6.442,6.442,0,0,0,1.908-2.391,7.923,7.923,0,0,0,.685-3.431v-.966H15.394V33.935h14.6V51.222H25.92l-.3-6.76,1.016.506a9.889,9.889,0,0,1-4.042,4.985,12.992,12.992,0,0,1-7.076,1.78" transform="translate(0 -10.472)"/>
    <path id="Trazado_3318" data-name="Trazado 3318" d="M105.86,38.045a13.32,13.32,0,0,1,6.562,1.577,11.054,11.054,0,0,1,4.447,4.549,14.674,14.674,0,0,1,1.6,7.1,14.77,14.77,0,0,1-1.6,7.091,11.066,11.066,0,0,1-4.447,4.552,14.433,14.433,0,0,1-13.12,0,11.2,11.2,0,0,1-4.475-4.552A14.506,14.506,0,0,1,93.2,51.266a14.647,14.647,0,0,1,1.628-7.1,11.188,11.188,0,0,1,4.463-4.549,13.305,13.305,0,0,1,6.57-1.577m0,4.284a6.983,6.983,0,0,0-3.894,1.04A6.683,6.683,0,0,0,99.5,46.395a14.146,14.146,0,0,0,0,9.736,6.619,6.619,0,0,0,2.469,3.049,6.954,6.954,0,0,0,3.894,1.044,6.843,6.843,0,0,0,3.867-1.044,6.723,6.723,0,0,0,2.442-3.049,14.146,14.146,0,0,0,0-9.736,6.779,6.779,0,0,0-2.442-3.026,6.875,6.875,0,0,0-3.867-1.051Z" transform="translate(-56.905 -23.228)"/>
  </g>
</svg>
