<svg xmlns="http://www.w3.org/2000/svg" xmlns:xlink="http://www.w3.org/1999/xlink" width="65" height="65" viewBox="0 0 65 65">
  <defs>
    <clipPath id="clip-path">
      <path id="Bounding_box" data-name="Bounding box" d="M0,0H65V65H0Z" fill="#56f35d" style="isolation: isolate"/>
    </clipPath>
  </defs>
  <g id="note_stack" clip-path="url(#clip-path)" style="isolation: isolate">
    <path id="note_stack-2" data-name="note_stack" d="M13.567,18.421a4.614,4.614,0,0,1,1.456-3.44A4.821,4.821,0,0,1,18.5,13.567H46.588a4.9,4.9,0,0,1,4.9,4.9v20.26l-12.76,12.76H18.463a4.9,4.9,0,0,1-4.9-4.9ZM.883,7a4.9,4.9,0,0,1,3.2-2L31.8.093a4.562,4.562,0,0,1,3.651.789,4.9,4.9,0,0,1,2.006,3.2l.625,3.552H18.463a10.432,10.432,0,0,0-7.651,3.182A10.432,10.432,0,0,0,7.63,18.463V41.931a5.247,5.247,0,0,1-1.719-1.456,4.7,4.7,0,0,1-.916-2.106L.093,10.65A4.563,4.563,0,0,1,.883,7ZM36.588,36.588V47.421L47.421,36.588Z" transform="translate(6.745 6.745)" fill="#56f35d" style="isolation: isolate"/>
  </g>
</svg>
