<svg xmlns="http://www.w3.org/2000/svg" width="179.38" height="30.072" viewBox="0 0 179.38 30.072">
  <g id="iobuilders-green.375c4e8e" transform="translate(0)">
    <path id="Trazado_8734" data-name="Trazado 8734" d="M3.227,5.957H8V27.723H3.227Z" transform="translate(1.544 1.842)" fill="#37ff92"/>
    <path id="Trazado_8735" data-name="Trazado 8735" d="M0,2.73H4.771V7.5H0Z" transform="translate(0 0.298)" fill="#37ff92"/>
    <path id="Trazado_8736" data-name="Trazado 8736" d="M18.686,28.184c6.082,0,10.39-3.717,10.39-11.066S24.768,6.052,18.686,6.052,8.3,9.769,8.3,17.118,12.6,28.184,18.686,28.184Zm0-4.055c-3.125,0-5.153-2.323-5.153-7.011s2.027-7.011,5.153-7.011,5.153,2.323,5.153,7.011S21.812,24.129,18.686,24.129Z" transform="translate(3.969 1.888)" fill="#37ff92"/>
    <path id="Trazado_8737" data-name="Trazado 8737" d="M42.886,20.037c0,5.448,2.788,7.983,6.885,7.983a6.919,6.919,0,0,0,6.673-4.055v3.548h4.9V6.4H56.274V18.686c0,3.421-1.732,5.153-4.35,5.153-2.534,0-3.97-1.436-3.97-4.519V6.4H42.886Z" transform="translate(20.517 2.052)" fill="#37ff92"/>
    <path id="Trazado_8738" data-name="Trazado 8738" d="M62.856.682H57.788v4.73h5.068Zm0,8.447H57.788V30.247h5.068Z" transform="translate(27.646 -0.682)" fill="#37ff92"/>
    <path id="Trazado_8739" data-name="Trazado 8739" d="M68.744.682H63.676V30.247h5.068Z" transform="translate(30.463 -0.682)" fill="#37ff92"/>
    <path id="Trazado_8740" data-name="Trazado 8740" d="M84.887,30.247h4.9V.682H84.718V12.972a7.718,7.718,0,0,0-7.18-4.35c-4.984,0-8.574,3.759-8.574,11.066s3.59,11.066,8.574,11.066a7.793,7.793,0,0,0,7.349-4.688ZM79.48,12.677c3.21,0,5.237,2.323,5.237,7.011S82.69,26.7,79.48,26.7c-3.252,0-5.279-2.323-5.279-7.011S76.228,12.677,79.48,12.677Z" transform="translate(32.993 -0.682)" fill="#37ff92"/>
    <path id="Trazado_8741" data-name="Trazado 8741" d="M104.858,21.257H99.663c-.422,1.732-1.774,3-4.435,3-3.083,0-5.195-1.9-5.364-5.744H105.2c.042-.465.042-.887.042-1.394,0-7.349-4.266-11.066-10.01-11.066-6.04,0-10.39,3.675-10.39,11.066s4.35,11.066,10.39,11.066C100.465,28.184,104.266,25.523,104.858,21.257ZM95.228,9.98c2.7,0,4.6,1.647,4.942,4.984H89.948C90.329,11.628,92.356,9.98,95.228,9.98Z" transform="translate(40.587 1.888)" fill="#37ff92"/>
    <path id="Trazado_8742" data-name="Trazado 8742" d="M111.22,10.9a6.566,6.566,0,0,1,1.774.211V6.464a6.018,6.018,0,0,0-1.648-.211c-2.955,0-5.237,1.6-6.251,5.111v-4.9H100.45V27.582h5.068V16.769C105.518,12.757,107.8,10.9,111.22,10.9Z" transform="translate(48.056 1.984)" fill="#37ff92"/>
    <path id="Trazado_8743" data-name="Trazado 8743" d="M109.854,12.43c0,8.532,12.5,4.942,12.5,9.376,0,1.563-1.52,2.534-3.8,2.534-2.7,0-4.308-1.225-4.477-3.083H109.22c.084,4.181,3.675,6.927,9.335,6.927,5.068,0,8.573-2.281,8.573-6.631,0-8.489-12.459-4.984-12.459-9.376,0-1.394,1.351-2.281,3.337-2.281,2.364,0,3.758,1.056,3.885,2.745h4.857c-.041-3.886-3.167-6.589-8.742-6.589C113.107,6.052,109.854,8.375,109.854,12.43Z" transform="translate(52.252 1.888)" fill="#37ff92"/>
    <path id="Trazado_8744" data-name="Trazado 8744" d="M24.605.713V30.232H48.757v-16.7H43.987V5.782H39.216V.713Zm14.61,5.069v7.752h-9.84V5.782ZM43.987,18.6H29.376v6.858H43.987Z" transform="translate(11.771 -0.667)" fill="#37ff92" fill-rule="evenodd"/>
  </g>
</svg>
